<?xml version="1.0" standalone="no"?>
<!DOCTYPE svg PUBLIC "-//W3C//DTD SVG 20010904//EN"
 "http://www.w3.org/TR/2001/REC-SVG-20010904/DTD/svg10.dtd">
<svg version="1.0" xmlns="http://www.w3.org/2000/svg"
 width="898.000000pt" height="736.000000pt" viewBox="0 0 898.000000 736.000000"
 preserveAspectRatio="xMidYMid meet">
<metadata>
Created by potrace 1.16, written by Peter Selinger 2001-2019
</metadata>
<g transform="translate(0.000000,736.000000) scale(0.100000,-0.100000)"
fill="#000000" stroke="none">
<path d="M4379 6370 c-9 -5 -61 -14 -115 -20 -152 -17 -156 -17 -208 -31 -32
-8 -50 -18 -53 -30 -3 -10 -16 -25 -29 -34 -14 -9 -24 -25 -24 -40 0 -20 -12
-30 -71 -60 -38 -19 -81 -35 -94 -35 -14 0 -29 -8 -34 -19 -6 -10 -23 -24 -38
-30 -16 -7 -39 -18 -53 -26 -14 -8 -39 -15 -57 -15 -22 0 -36 -6 -43 -20 -6
-11 -20 -20 -31 -20 -10 0 -50 -19 -87 -41 -47 -30 -80 -43 -110 -44 -27 -1
-51 -10 -65 -22 -12 -12 -33 -24 -45 -28 -14 -4 -28 -19 -34 -36 -6 -17 -30
-43 -57 -61 -50 -35 -82 -62 -175 -152 -33 -32 -83 -76 -111 -97 -27 -21 -75
-56 -104 -80 -30 -23 -69 -48 -87 -55 -33 -14 -50 -31 -41 -40 3 -3 17 2 31
11 22 15 26 15 26 2 0 -8 -10 -21 -22 -30 -13 -8 -45 -35 -73 -61 -70 -65
-106 -96 -110 -96 -2 0 -16 -11 -31 -25 -15 -14 -22 -25 -15 -25 15 0 14 -27
-2 -33 -18 -7 -61 -93 -53 -106 11 -16 -42 -91 -72 -102 -60 -21 -58 -20 -36
-29 29 -11 38 -39 16 -47 -27 -9 -62 -45 -62 -63 0 -9 -7 -25 -15 -36 -8 -10
-15 -25 -15 -31 0 -18 -34 -50 -47 -46 -18 6 -57 -88 -62 -150 -1 -4 -9 -7
-18 -5 -10 2 -22 -7 -29 -20 -6 -13 -17 -29 -23 -35 -15 -15 -14 -44 2 -50 9
-3 8 -9 -4 -23 -21 -25 -36 -69 -42 -123 -6 -49 -55 -110 -77 -96 -18 11 -6
96 15 111 12 9 16 21 12 35 -3 12 0 34 7 48 17 33 31 141 18 141 -18 0 -42
-37 -40 -61 2 -26 -20 -90 -34 -100 -5 -3 -11 -27 -14 -52 -2 -26 -10 -66 -18
-89 -24 -75 -27 -99 -15 -114 7 -8 9 -18 5 -21 -4 -4 -10 -3 -14 3 -15 22 -42
23 -62 2 -27 -30 -26 -35 16 -53 30 -12 34 -17 25 -34 -6 -11 -11 -29 -11 -41
0 -11 -7 -32 -16 -45 -9 -14 -13 -33 -9 -45 6 -19 -10 -30 -17 -10 -1 5 -33
12 -70 15 -64 5 -69 4 -103 -26 -42 -37 -43 -51 -10 -91 14 -16 25 -37 25 -47
0 -10 13 -22 32 -29 24 -9 29 -15 21 -23 -23 -23 -87 -55 -126 -64 -74 -16
-98 -91 -51 -160 14 -21 23 -44 20 -51 -3 -8 1 -14 8 -14 8 0 16 5 18 11 4 13
82 5 108 -11 13 -8 13 -14 -1 -52 -19 -52 -36 -52 -91 -2 -33 29 -45 34 -88
34 -49 0 -51 1 -80 48 -16 26 -33 52 -38 57 -4 6 -17 28 -28 50 -41 81 -60
106 -82 112 -33 8 -57 -18 -54 -61 2 -33 -9 -101 -24 -142 -7 -19 -7 -19 14 0
12 11 24 36 28 62 7 48 32 88 41 66 3 -7 13 -21 22 -30 29 -29 75 -105 91
-152 16 -42 15 -48 -3 -90 -11 -25 -28 -52 -39 -61 -40 -31 -5 -141 70 -221
32 -34 43 -34 110 -3 65 30 112 32 167 5 42 -20 69 -58 57 -77 -4 -6 -27 -13
-52 -17 -69 -10 -102 -41 -108 -104 -3 -32 0 -57 7 -66 9 -11 6 -20 -14 -44
-29 -35 -32 -70 -7 -98 28 -31 59 -77 66 -101 7 -20 5 -21 -53 -16 -55 5 -60
4 -76 -20 -24 -37 -22 -103 4 -138 19 -25 21 -37 15 -87 -7 -70 14 -122 68
-162 83 -64 179 -123 208 -129 28 -5 37 -15 57 -62 l24 -56 -30 -31 c-36 -35
-39 -52 -11 -52 24 0 26 -13 5 -30 -17 -14 -21 -142 -5 -184 5 -13 34 -48 65
-77 30 -29 55 -60 55 -68 0 -8 10 -35 22 -59 19 -40 20 -48 8 -76 -19 -44 -17
-96 4 -112 24 -17 16 -27 -52 -65 -103 -59 -356 -224 -432 -282 -41 -31 -131
-100 -200 -152 -69 -53 -181 -135 -250 -181 -263 -176 -490 -340 -505 -364 -4
-7 1137 -10 3616 -10 2895 0 3620 3 3612 13 -104 138 -236 260 -433 398 -131
92 -333 235 -380 269 -27 19 -78 57 -115 83 -36 27 -112 72 -168 101 -56 28
-142 78 -192 110 l-90 59 35 11 c41 13 60 45 60 101 0 22 3 63 6 92 6 47 10
53 35 58 17 4 40 0 59 -10 36 -18 65 -12 81 17 8 15 7 24 -6 38 -9 9 -19 35
-22 56 -3 22 -10 45 -16 52 -6 8 -6 16 1 25 16 18 -8 88 -28 83 -9 -3 -28 13
-48 41 -18 25 -32 46 -30 47 2 1 29 17 60 34 l57 32 16 -22 c16 -24 16 -24 20
44 2 29 -2 37 -17 42 -24 6 -18 35 18 83 13 17 24 36 24 42 0 5 11 22 24 38
23 27 24 34 21 148 -1 66 -6 134 -10 152 -7 29 -5 33 21 39 16 3 39 17 52 30
13 13 30 24 38 24 8 0 13 4 10 9 -3 4 7 28 22 52 36 58 52 103 62 167 5 29 13
59 19 66 6 7 12 45 15 85 2 40 6 75 9 77 3 3 31 12 63 21 80 20 91 27 115 74
23 47 20 71 -15 114 -23 29 -27 30 -90 27 -36 -1 -66 1 -66 5 0 11 65 73 77
73 5 0 9 41 9 96 -1 94 -2 96 -31 120 -16 13 -37 24 -46 24 -31 0 -32 -22 -3
-150 6 -28 -17 -90 -40 -109 -31 -26 -46 -6 -46 63 0 61 -28 165 -51 191 -14
14 -11 78 5 100 7 11 19 37 26 58 7 24 24 46 46 60 18 12 36 28 39 35 3 9 -2
8 -17 -3 -27 -18 -59 -20 -76 -3 -7 7 -12 37 -12 68 0 31 -5 61 -11 67 -12 12
23 35 73 47 56 13 77 65 36 88 -13 6 -49 13 -80 13 -32 1 -64 8 -72 14 -25 21
-40 80 -27 105 27 52 42 118 35 154 -5 32 -35 100 -65 152 -5 8 -16 29 -25 45
-33 58 -114 143 -144 148 -25 6 -52 27 -142 113 -33 31 -36 58 -9 80 16 14 17
19 5 44 -8 15 -15 60 -17 100 -2 67 -5 75 -36 109 -18 20 -45 61 -59 91 -14
30 -34 61 -45 69 -15 11 -16 15 -6 22 10 6 8 9 -7 9 -34 0 -98 95 -87 128 7
18 75 4 91 -20 12 -16 42 -26 42 -13 0 14 -33 54 -40 50 -5 -3 -34 20 -66 50
-32 30 -64 55 -71 55 -37 0 -143 107 -143 145 0 6 -14 24 -31 41 -50 47 -74
104 -44 104 24 0 18 13 -32 78 -27 34 -55 72 -64 84 -10 13 -21 19 -25 15 -5
-4 -3 -16 4 -25 7 -9 15 -24 18 -32 3 -8 12 -28 21 -43 8 -16 13 -31 10 -34
-3 -2 -10 5 -17 16 -6 12 -31 40 -55 63 -49 44 -55 58 -27 59 15 0 15 1 -2 12
-11 7 -41 35 -68 62 -27 28 -57 59 -68 70 -11 12 -20 28 -20 38 0 9 -17 26
-37 37 -21 11 -58 34 -83 50 -25 16 -61 39 -82 52 -20 13 -62 40 -93 61 -31
21 -71 40 -88 43 -18 3 -57 9 -87 14 -30 4 -91 16 -135 25 -44 9 -119 23 -167
30 -48 7 -91 16 -96 19 -5 3 -42 -1 -82 -8 -68 -13 -75 -13 -99 4 -32 23 -90
34 -112 20z m369 -663 c6 -5 12 -7 12 -3 0 3 23 -3 51 -14 28 -11 55 -18 60
-14 15 9 107 -16 113 -31 3 -8 22 -17 43 -21 21 -4 47 -16 59 -28 11 -12 33
-30 47 -40 15 -10 27 -26 27 -34 0 -8 7 -22 15 -31 69 -75 80 -94 81 -148 0
-39 6 -60 22 -78 15 -17 22 -40 24 -70 1 -29 7 -49 16 -54 11 -6 15 -24 13
-70 -1 -33 6 -88 14 -122 10 -39 13 -73 9 -93 -4 -17 -9 -34 -10 -38 -1 -5 -2
-12 -3 -16 0 -5 -40 -7 -88 -5 -126 7 -151 5 -184 -12 -20 -11 -29 -12 -29 -4
0 8 -4 8 -15 -1 -11 -9 -25 -10 -55 -2 -43 11 -101 0 -130 -24 -19 -15 -77
-28 -108 -25 -13 1 -35 -5 -49 -14 -17 -12 -37 -15 -61 -12 -20 4 -49 0 -68
-8 -33 -14 -35 -13 -56 15 -12 17 -27 30 -33 30 -6 0 -25 16 -41 35 -19 23
-46 41 -79 51 -27 9 -59 24 -70 34 -11 10 -26 15 -32 13 -7 -3 -13 0 -13 6 0
6 -3 10 -7 9 -5 -2 -21 8 -36 22 -71 62 -88 82 -82 97 3 10 -4 26 -17 40 -22
23 -22 25 -6 53 14 25 14 31 2 41 -17 14 -18 46 -1 52 9 3 9 9 0 25 -10 17
-10 20 0 16 7 -2 19 -21 27 -42 l13 -37 9 30 c6 22 4 33 -7 41 -8 6 -15 15
-15 19 0 5 3 5 7 2 8 -9 33 12 33 28 0 7 -10 16 -22 19 -21 6 -22 7 -5 17 9 6
15 15 11 20 -3 6 3 13 14 16 36 9 40 73 5 73 -9 0 -13 3 -10 7 4 3 2 12 -4 19
-7 8 -7 14 1 19 5 3 10 1 10 -5 0 -6 5 -8 10 -5 8 5 7 11 -1 21 -6 8 -9 17 -6
21 4 3 2 14 -3 24 -8 14 -6 19 9 24 11 3 23 15 26 26 4 10 14 19 23 20 14 0
13 2 -3 9 l-20 9 20 1 c11 2 24 2 29 1 5 -1 6 5 3 13 -11 28 55 57 78 34 9 -9
55 4 49 13 -3 5 3 9 13 9 11 0 24 5 31 12 6 6 50 14 97 16 47 3 88 9 91 13 7
12 135 0 152 -14z m-68 -1432 c29 -15 90 -106 90 -135 0 -22 130 -295 177
-370 22 -36 47 -81 56 -100 19 -39 81 -82 148 -104 89 -29 134 -48 151 -63 9
-8 29 -13 45 -12 21 2 37 -6 61 -30 31 -31 33 -37 29 -85 -7 -72 -38 -229 -48
-241 -5 -5 -9 -23 -9 -40 0 -17 -7 -40 -15 -52 -8 -12 -18 -49 -22 -82 -3 -34
-10 -61 -16 -61 -5 0 -7 -11 -5 -25 4 -17 1 -25 -9 -25 -8 0 -11 -4 -8 -10 3
-5 1 -10 -5 -10 -6 0 -18 -7 -26 -15 -9 -8 -21 -15 -27 -15 -8 0 -8 3 -2 8 18
13 18 101 0 138 -9 19 -13 39 -10 44 3 6 -1 13 -9 16 -9 3 -14 9 -11 14 2 4
-7 12 -20 18 -14 7 -25 16 -25 21 0 14 -44 21 -52 8 -14 -22 -91 -11 -147 22
-28 17 -57 31 -64 31 -7 0 -24 8 -37 17 -20 14 -43 17 -114 16 -65 -2 -111 3
-165 18 -42 12 -87 24 -101 27 -13 3 -33 13 -43 23 -18 17 -17 18 25 42 54 32
93 27 101 -12 11 -54 94 -66 149 -22 20 17 21 21 9 44 -17 32 -8 47 29 47 22
0 28 4 24 15 -4 8 -2 15 4 15 5 0 10 6 9 13 0 6 1 29 1 49 l2 38 44 -6 c58 -8
80 6 112 71 l27 55 -54 56 c-71 73 -84 79 -114 60 -48 -32 -86 -16 -112 45
-12 29 -63 47 -63 23 0 -21 -38 -17 -45 5 -3 11 -17 37 -32 57 -14 21 -31 58
-38 81 -13 43 -13 44 17 66 46 34 59 67 49 124 -14 80 -7 174 14 190 24 17 39
16 75 -2z m312 -305 c23 -11 51 -20 63 -20 12 0 30 -7 41 -15 10 -8 24 -15 30
-15 6 0 29 -7 50 -17 22 -9 48 -17 60 -19 36 -4 110 -44 140 -75 34 -35 26
-44 -44 -55 -92 -14 -245 36 -316 104 -42 40 -96 110 -96 124 0 14 29 9 72
-12z m27 -161 c94 -62 165 -82 298 -83 61 -1 115 -5 119 -9 14 -14 4 -79 -18
-115 -18 -30 -29 -37 -53 -37 -68 1 -289 100 -344 155 -41 41 -87 130 -67 130
2 0 32 -19 65 -41z m87 -915 c17 -25 103 -91 115 -87 17 5 1 -55 -19 -77 -20
-22 -22 -22 -17 -5 5 16 5 17 -3 5 -6 -8 -8 -18 -6 -22 10 -16 -8 -47 -29 -50
-14 -2 -23 -11 -25 -25 -2 -13 -8 -23 -13 -23 -23 0 -6 -29 18 -32 25 -3 28
-7 28 -43 1 -75 -69 -174 -114 -162 -14 3 -17 -1 -13 -18 5 -31 -14 -64 -46
-77 -38 -16 -95 -18 -107 -3 -5 7 -23 16 -40 19 -16 4 -48 11 -70 16 -22 4
-46 17 -54 29 -7 12 -19 21 -26 21 -7 0 -15 7 -19 15 -3 8 -17 15 -31 15 -14
0 -25 5 -25 10 0 6 -9 10 -20 10 -20 0 -50 45 -50 75 0 18 -5 19 -30 5 -17 -9
-23 -4 -46 29 -16 26 -24 47 -19 59 3 11 1 23 -5 27 -6 3 -8 11 -4 16 3 5 10
7 15 4 5 -4 9 0 9 7 0 13 19 24 114 62 21 9 62 16 91 16 29 0 80 9 114 20 34
11 65 19 69 19 25 -4 41 4 47 24 12 39 11 77 -2 77 -7 0 -13 6 -13 14 0 9 28
21 78 34 107 28 128 27 148 -4z m-56 -1239 c21 7 28 -9 10 -20 -8 -5 -7 -11 1
-21 10 -12 8 -17 -6 -28 -16 -12 -13 -14 28 -18 25 -3 52 -12 60 -19 17 -17
37 -74 37 -105 0 -13 5 -24 10 -24 6 0 10 -7 10 -15 0 -8 8 -16 18 -16 16 -1
16 -2 0 -6 -20 -5 -23 -18 -8 -28 6 -4 8 -10 5 -15 -3 -5 -1 -11 5 -15 6 -4 8
-10 5 -15 -7 -11 60 -25 74 -15 6 3 15 4 21 0 13 -8 1 -35 -16 -35 -18 0 -18
-5 2 -35 17 -26 12 -45 -13 -45 -9 0 -13 6 -10 14 4 10 1 13 -9 9 -10 -4 -12
-9 -5 -16 5 -5 7 -16 4 -25 -4 -9 -2 -13 4 -9 15 9 44 -20 37 -37 -3 -7 2 -18
10 -25 14 -11 13 -16 -1 -37 -9 -14 -13 -27 -10 -30 3 -3 1 -19 -3 -35 -7 -22
-5 -29 6 -29 8 0 14 -4 14 -10 0 -5 7 -10 16 -10 12 0 15 -6 10 -24 -6 -26 16
-52 35 -41 7 5 8 10 1 14 -6 4 -4 14 6 27 22 27 47 35 62 21 7 -7 3 3 -8 22
-19 32 -20 35 -4 47 14 10 14 14 3 28 -12 14 -11 16 8 16 11 0 21 -6 21 -14 0
-8 6 -16 14 -19 15 -6 19 -54 5 -63 -5 -3 -9 -11 -9 -18 0 -16 -79 -102 -91
-99 -5 2 -9 -4 -9 -13 0 -8 -4 -12 -10 -9 -5 3 -10 -2 -10 -12 0 -29 -88 -107
-170 -150 -77 -41 -222 -89 -275 -92 -37 -1 -56 -5 -119 -25 -58 -18 -63 -15
-96 49 -18 34 -31 48 -52 52 -15 3 -28 9 -28 14 0 5 -7 9 -15 9 -9 0 -15 9
-15 25 0 25 -1 25 -24 10 -23 -15 -27 -15 -58 1 -18 10 -40 19 -48 20 -31 6
-78 84 -50 84 18 0 48 33 43 46 -3 8 0 14 6 14 6 0 11 7 11 16 0 10 -6 14 -15
10 -8 -3 -15 -2 -15 3 0 4 -10 7 -22 7 -14 -1 -24 5 -24 14 -1 8 -2 23 -3 34
-1 14 -7 17 -26 14 -31 -6 -32 3 -4 21 18 11 19 15 8 23 -11 8 -11 9 3 5 20
-7 45 28 53 73 3 17 17 43 30 56 19 19 24 31 19 50 -5 21 0 32 25 55 18 16 36
29 42 29 5 0 9 4 9 10 0 15 -33 50 -47 50 -7 0 -17 9 -23 21 -11 20 -12 20
-31 -5 -19 -25 -62 -35 -72 -18 -3 4 -8 26 -12 48 -6 38 -4 44 27 73 18 17 39
31 45 31 7 0 18 9 25 20 7 11 22 20 33 20 11 0 27 9 35 20 8 11 25 20 37 20
13 0 23 6 23 14 0 18 26 28 54 20 16 -4 25 0 30 11 5 14 9 15 21 5 12 -10 15
-9 15 4 0 9 -4 16 -10 16 -5 0 -10 5 -10 10 0 22 19 8 30 -22 10 -25 14 -29
17 -15 3 9 9 15 14 11 5 -3 16 2 24 10 16 15 44 11 57 -8 4 -6 13 -5 24 5 9 8
25 13 36 11 10 -2 21 4 25 15 14 36 35 43 70 22 20 -13 41 -18 53 -14z"/>
</g>
</svg>
